<svg width="214" height="36" viewBox="0 0 214 36" fill="none" xmlns="http://www.w3.org/2000/svg">
<path d="M18.0504 12.4709H14.5973C14.4988 11.9046 14.3172 11.4029 14.0526 10.9659C13.7879 10.5227 13.4586 10.1473 13.0646 9.83949C12.6707 9.53172 12.2214 9.3009 11.7166 9.14702C11.218 8.98698 10.6795 8.90696 10.1009 8.90696C9.07292 8.90696 8.16193 9.16548 7.3679 9.68253C6.57386 10.1934 5.95218 10.9444 5.50284 11.9354C5.0535 12.9202 4.82884 14.1236 4.82884 15.5455C4.82884 16.992 5.0535 18.2107 5.50284 19.2017C5.95833 20.1866 6.58002 20.9313 7.3679 21.4361C8.16193 21.9347 9.06984 22.1839 10.0916 22.1839C10.6579 22.1839 11.1873 22.1101 11.6797 21.9624C12.1783 21.8085 12.6245 21.5838 13.0185 21.2884C13.4186 20.9929 13.754 20.6297 14.0249 20.1989C14.3018 19.768 14.4927 19.2756 14.5973 18.7216L18.0504 18.7401C17.9212 19.6387 17.6411 20.482 17.2102 21.2699C16.7855 22.0578 16.2285 22.7533 15.5391 23.3565C14.8497 23.9536 14.0433 24.4214 13.12 24.7599C12.1967 25.0923 11.1719 25.2585 10.0455 25.2585C8.38352 25.2585 6.9001 24.8738 5.59517 24.1044C4.29025 23.335 3.26231 22.224 2.51136 20.7713C1.76042 19.3187 1.38494 17.5767 1.38494 15.5455C1.38494 13.508 1.76349 11.7661 2.5206 10.3196C3.2777 8.86695 4.30871 7.75592 5.61364 6.9865C6.91856 6.21709 8.39583 5.83239 10.0455 5.83239C11.098 5.83239 12.0767 5.98011 12.9815 6.27557C13.8864 6.57102 14.6927 7.00497 15.4006 7.57741C16.1084 8.1437 16.6901 8.83925 17.1456 9.66406C17.6072 10.4827 17.9089 11.4183 18.0504 12.4709ZM27.2257 25.277C25.8407 25.277 24.6404 24.9723 23.6248 24.3629C22.6092 23.7536 21.8213 22.901 21.2612 21.8054C20.7072 20.7098 20.4302 19.4295 20.4302 17.9645C20.4302 16.4995 20.7072 15.2161 21.2612 14.1143C21.8213 13.0125 22.6092 12.157 23.6248 11.5476C24.6404 10.9382 25.8407 10.6335 27.2257 10.6335C28.6106 10.6335 29.8109 10.9382 30.8265 11.5476C31.8422 12.157 32.627 13.0125 33.1809 14.1143C33.7411 15.2161 34.0211 16.4995 34.0211 17.9645C34.0211 19.4295 33.7411 20.7098 33.1809 21.8054C32.627 22.901 31.8422 23.7536 30.8265 24.3629C29.8109 24.9723 28.6106 25.277 27.2257 25.277ZM27.2441 22.5994C27.9951 22.5994 28.6229 22.3932 29.1277 21.9808C29.6324 21.5623 30.0079 21.0021 30.2541 20.3004C30.5065 19.5987 30.6326 18.817 30.6326 17.9553C30.6326 17.0874 30.5065 16.3026 30.2541 15.6009C30.0079 14.893 29.6324 14.3298 29.1277 13.9112C28.6229 13.4927 27.9951 13.2834 27.2441 13.2834C26.4747 13.2834 25.8346 13.4927 25.3237 13.9112C24.819 14.3298 24.4404 14.893 24.188 15.6009C23.9418 16.3026 23.8187 17.0874 23.8187 17.9553C23.8187 18.817 23.9418 19.5987 24.188 20.3004C24.4404 21.0021 24.819 21.5623 25.3237 21.9808C25.8346 22.3932 26.4747 22.5994 27.2441 22.5994ZM36.858 25V10.8182H40.2003V25H36.858ZM38.5384 8.8054C38.009 8.8054 37.5535 8.62997 37.1719 8.27912C36.7902 7.92211 36.5994 7.49432 36.5994 6.99574C36.5994 6.491 36.7902 6.06321 37.1719 5.71236C37.5535 5.35535 38.009 5.17685 38.5384 5.17685C39.0739 5.17685 39.5294 5.35535 39.9048 5.71236C40.2865 6.06321 40.4773 6.491 40.4773 6.99574C40.4773 7.49432 40.2865 7.92211 39.9048 8.27912C39.5294 8.62997 39.0739 8.8054 38.5384 8.8054ZM46.9796 16.6903V25H43.6373V10.8182H46.8319V13.228H46.998C47.3243 12.4339 47.8444 11.803 48.5584 11.3352C49.2786 10.8674 50.168 10.6335 51.2267 10.6335C52.2054 10.6335 53.0579 10.8428 53.7843 11.2614C54.5167 11.6799 55.083 12.2862 55.4831 13.0803C55.8894 13.8743 56.0894 14.8376 56.0833 15.9702V25H52.7409V16.4872C52.7409 15.5393 52.4947 14.7976 52.0023 14.2621C51.516 13.7266 50.842 13.4588 49.9803 13.4588C49.3955 13.4588 48.8754 13.5881 48.4199 13.8466C47.9706 14.099 47.6167 14.4652 47.3581 14.9453C47.1058 15.4254 46.9796 16.0071 46.9796 16.6903ZM59.6287 6.09091H63.8205L69.4341 19.7926H69.6557L75.2694 6.09091H79.4611V25H76.1742V12.0092H75.9988L70.7729 24.9446H68.3169L63.0911 11.9815H62.9157V25H59.6287V6.09091ZM87.1245 25.2862C86.2258 25.2862 85.4164 25.1262 84.6962 24.8061C83.9822 24.4799 83.4159 23.9998 82.9973 23.3658C82.5849 22.7318 82.3787 21.95 82.3787 21.0206C82.3787 20.2204 82.5265 19.5587 82.8219 19.0355C83.1174 18.5123 83.5205 18.0938 84.0314 17.7798C84.5423 17.4659 85.1178 17.2289 85.758 17.0689C86.4043 16.9027 87.0721 16.7827 87.7615 16.7088C88.5925 16.6226 89.2665 16.5457 89.7836 16.478C90.3006 16.4041 90.6761 16.2933 90.91 16.1456C91.15 15.9917 91.2701 15.7547 91.2701 15.4347V15.3793C91.2701 14.6837 91.0639 14.1451 90.6515 13.7635C90.2391 13.3819 89.6451 13.1911 88.8695 13.1911C88.0508 13.1911 87.4015 13.3696 86.9213 13.7266C86.4474 14.0836 86.1273 14.5052 85.9611 14.9915L82.8404 14.5483C83.0866 13.6866 83.4928 12.9664 84.0591 12.3878C84.6254 11.803 85.3179 11.366 86.1365 11.0767C86.9552 10.7812 87.86 10.6335 88.851 10.6335C89.5343 10.6335 90.2144 10.7135 90.8915 10.8736C91.5686 11.0336 92.1872 11.2983 92.7473 11.6676C93.3075 12.0308 93.7568 12.5263 94.0953 13.1541C94.44 13.782 94.6124 14.5668 94.6124 15.5085V25H91.3993V23.0518H91.2885C91.0854 23.4458 90.7992 23.8151 90.4299 24.1598C90.0667 24.4983 89.6081 24.7723 89.0542 24.9815C88.5063 25.1847 87.8631 25.2862 87.1245 25.2862ZM87.9924 22.8303C88.6633 22.8303 89.245 22.6979 89.7374 22.4332C90.2298 22.1624 90.6084 21.8054 90.873 21.3622C91.1439 20.919 91.2793 20.4358 91.2793 19.9126V18.2415C91.1747 18.3277 90.9962 18.4077 90.7438 18.4815C90.4976 18.5554 90.2206 18.62 89.9128 18.6754C89.6051 18.7308 89.3004 18.7801 88.9988 18.8232C88.6971 18.8662 88.4355 18.9032 88.214 18.9339C87.7154 19.0017 87.2691 19.1125 86.8752 19.2663C86.4812 19.4202 86.1704 19.6357 85.9426 19.9126C85.7149 20.1835 85.601 20.5343 85.601 20.9652C85.601 21.5807 85.8257 22.0455 86.275 22.3594C86.7244 22.6733 87.2968 22.8303 87.9924 22.8303ZM97.9732 30.3182V10.8182H101.26V13.1634H101.454C101.626 12.8187 101.869 12.4524 102.183 12.0646C102.497 11.6707 102.922 11.3352 103.458 11.0582C103.993 10.7751 104.676 10.6335 105.507 10.6335C106.603 10.6335 107.591 10.9136 108.471 11.4737C109.357 12.0277 110.059 12.8494 110.576 13.9389C111.099 15.0223 111.361 16.3518 111.361 17.9276C111.361 19.4848 111.106 20.8082 110.595 21.8977C110.084 22.9872 109.388 23.8182 108.508 24.3906C107.628 24.9631 106.631 25.2493 105.517 25.2493C104.704 25.2493 104.03 25.1139 103.494 24.843C102.959 24.5722 102.528 24.246 102.202 23.8643C101.882 23.4766 101.633 23.1103 101.454 22.7656H101.316V30.3182H97.9732ZM101.251 17.9091C101.251 18.8262 101.38 19.6295 101.639 20.3189C101.903 21.0083 102.282 21.5469 102.774 21.9347C103.273 22.3163 103.876 22.5071 104.584 22.5071C105.323 22.5071 105.941 22.3101 106.44 21.9162C106.938 21.5161 107.314 20.9714 107.566 20.282C107.825 19.5864 107.954 18.7955 107.954 17.9091C107.954 17.0289 107.828 16.2472 107.575 15.5639C107.323 14.8807 106.948 14.3452 106.449 13.9574C105.95 13.5696 105.329 13.3757 104.584 13.3757C103.87 13.3757 103.264 13.5634 102.765 13.9389C102.267 14.3144 101.888 14.8407 101.629 15.5178C101.377 16.1948 101.251 16.992 101.251 17.9091ZM114.223 30.3182V10.8182H117.51V13.1634H117.704C117.876 12.8187 118.119 12.4524 118.433 12.0646C118.747 11.6707 119.172 11.3352 119.708 11.0582C120.243 10.7751 120.926 10.6335 121.757 10.6335C122.853 10.6335 123.841 10.9136 124.721 11.4737C125.607 12.0277 126.309 12.8494 126.826 13.9389C127.349 15.0223 127.611 16.3518 127.611 17.9276C127.611 19.4848 127.356 20.8082 126.845 21.8977C126.334 22.9872 125.638 23.8182 124.758 24.3906C123.878 24.9631 122.881 25.2493 121.767 25.2493C120.954 25.2493 120.28 25.1139 119.744 24.843C119.209 24.5722 118.778 24.246 118.452 23.8643C118.132 23.4766 117.883 23.1103 117.704 22.7656H117.566V30.3182H114.223ZM117.501 17.9091C117.501 18.8262 117.63 19.6295 117.889 20.3189C118.153 21.0083 118.532 21.5469 119.024 21.9347C119.523 22.3163 120.126 22.5071 120.834 22.5071C121.573 22.5071 122.191 22.3101 122.69 21.9162C123.188 21.5161 123.564 20.9714 123.816 20.282C124.075 19.5864 124.204 18.7955 124.204 17.9091C124.204 17.0289 124.078 16.2472 123.825 15.5639C123.573 14.8807 123.198 14.3452 122.699 13.9574C122.2 13.5696 121.579 13.3757 120.834 13.3757C120.12 13.3757 119.514 13.5634 119.015 13.9389C118.517 14.3144 118.138 14.8407 117.879 15.5178C117.627 16.1948 117.501 16.992 117.501 17.9091ZM130.473 25V10.8182H133.816V25H130.473ZM132.154 8.8054C131.624 8.8054 131.169 8.62997 130.787 8.27912C130.405 7.92211 130.215 7.49432 130.215 6.99574C130.215 6.491 130.405 6.06321 130.787 5.71236C131.169 5.35535 131.624 5.17685 132.154 5.17685C132.689 5.17685 133.145 5.35535 133.52 5.71236C133.902 6.06321 134.093 6.491 134.093 6.99574C134.093 7.49432 133.902 7.92211 133.52 8.27912C133.145 8.62997 132.689 8.8054 132.154 8.8054ZM140.595 16.6903V25H137.252V10.8182H140.447V13.228H140.613C140.94 12.4339 141.46 11.803 142.174 11.3352C142.894 10.8674 143.783 10.6335 144.842 10.6335C145.821 10.6335 146.673 10.8428 147.4 11.2614C148.132 11.6799 148.698 12.2862 149.098 13.0803C149.505 13.8743 149.705 14.8376 149.699 15.9702V25H146.356V16.4872C146.356 15.5393 146.11 14.7976 145.618 14.2621C145.131 13.7266 144.457 13.4588 143.596 13.4588C143.011 13.4588 142.491 13.5881 142.035 13.8466C141.586 14.099 141.232 14.4652 140.973 14.9453C140.721 15.4254 140.595 16.0071 140.595 16.6903ZM159.264 30.6136C158.064 30.6136 157.033 30.4505 156.171 30.1243C155.309 29.8042 154.617 29.3733 154.093 28.8317C153.57 28.29 153.207 27.6899 153.004 27.0312L156.014 26.3018C156.149 26.5788 156.346 26.8527 156.605 27.1236C156.863 27.4006 157.211 27.6283 157.648 27.8068C158.091 27.9915 158.648 28.0838 159.319 28.0838C160.267 28.0838 161.052 27.853 161.674 27.3913C162.295 26.9358 162.606 26.1849 162.606 25.1385V22.4517H162.44C162.268 22.7964 162.015 23.1503 161.683 23.5135C161.357 23.8767 160.923 24.1813 160.381 24.4276C159.846 24.6738 159.172 24.7969 158.359 24.7969C157.27 24.7969 156.282 24.5414 155.395 24.0305C154.515 23.5135 153.813 22.7441 153.29 21.7223C152.773 20.6944 152.515 19.4079 152.515 17.8629C152.515 16.3056 152.773 14.9915 153.29 13.9205C153.813 12.8433 154.518 12.0277 155.404 11.4737C156.291 10.9136 157.279 10.6335 158.368 10.6335C159.199 10.6335 159.882 10.7751 160.418 11.0582C160.96 11.3352 161.391 11.6707 161.711 12.0646C162.031 12.4524 162.274 12.8187 162.44 13.1634H162.625V10.8182H165.921V25.2308C165.921 26.4434 165.632 27.4467 165.053 28.2408C164.474 29.0348 163.683 29.6288 162.68 30.0227C161.677 30.4167 160.538 30.6136 159.264 30.6136ZM159.292 22.1747C159.999 22.1747 160.603 22.0024 161.101 21.6577C161.6 21.313 161.978 20.8175 162.237 20.1712C162.495 19.5249 162.625 18.7493 162.625 17.8445C162.625 16.9519 162.495 16.1702 162.237 15.4993C161.984 14.8284 161.609 14.3082 161.11 13.9389C160.618 13.5634 160.012 13.3757 159.292 13.3757C158.547 13.3757 157.925 13.5696 157.426 13.9574C156.928 14.3452 156.552 14.8776 156.3 15.5547C156.048 16.2256 155.922 16.9889 155.922 17.8445C155.922 18.7124 156.048 19.4725 156.3 20.125C156.559 20.7713 156.937 21.276 157.436 21.6392C157.94 21.9962 158.559 22.1747 159.292 22.1747Z" fill="white"/>
<path d="M196 36C205.389 36 213 28.3888 213 19C213 9.61116 205.389 2 196 2C186.611 2 179 9.61116 179 19C179 28.3888 186.611 36 196 36Z" fill="#686868"/>
<path d="M196 34C205.389 34 213 26.3888 213 17C213 7.61116 205.389 0 196 0C186.611 0 179 7.61116 179 17C179 26.3888 186.611 34 196 34Z" fill="#FFCC4D"/>
<path d="M196 32C203.732 32 210 25.732 210 18C210 10.268 203.732 4 196 4C188.268 4 182 10.268 182 18C182 25.732 188.268 32 196 32Z" fill="#FFE8B6"/>
<path d="M196 31C203.732 31 210 24.732 210 17C210 9.26801 203.732 3 196 3C188.268 3 182 9.26801 182 17C182 24.732 188.268 31 196 31Z" fill="#FFAC33"/>
<path d="M187.543 10.856C187.543 10.311 188.078 10.093 188.078 10.093L195.956 6.39301L203.909 10.093C203.909 10.093 204.457 10.215 204.457 10.86V11.501H187.543V10.856Z" fill="#FFE8B6"/>
<path d="M203.929 12.836C203.929 12.252 203.424 11.779 202.802 11.779H189.129C188.506 11.779 188.072 12.252 188.072 12.836C188.072 13.233 188.276 13.575 188.601 13.756V14.422H190.715V13.893H192.829V14.422H194.943V13.893H197.057V14.422H199.171V13.893H201.285V14.422H203.4V13.729C203.717 13.541 203.929 13.212 203.929 12.836ZM205.514 24C205.514 24.2103 205.431 24.412 205.282 24.5607C205.133 24.7094 204.931 24.793 204.721 24.793H187.279C187.069 24.793 186.867 24.7094 186.718 24.5607C186.57 24.412 186.486 24.2103 186.486 24C186.486 23.7897 186.57 23.588 186.718 23.4393C186.867 23.2905 187.069 23.207 187.279 23.207H204.722C205.159 23.207 205.514 23.562 205.514 24Z" fill="#686868"/>
<path d="M204.457 12.2C204.457 12.3402 204.401 12.4746 204.302 12.5738C204.203 12.6729 204.068 12.7288 203.928 12.729H188.071C187.936 12.7207 187.81 12.6614 187.717 12.5631C187.625 12.4648 187.573 12.335 187.573 12.2C187.573 12.0651 187.625 11.9352 187.717 11.8369C187.81 11.7386 187.936 11.6793 188.071 11.671L203.928 11.674C203.997 11.6738 204.066 11.6872 204.13 11.7135C204.194 11.7398 204.252 11.7785 204.302 11.8273C204.351 11.8762 204.39 11.9342 204.416 11.9982C204.443 12.0621 204.457 12.1307 204.457 12.2ZM190.186 12.814H201.815V14H190.186V12.814Z" fill="#686868"/>
<path d="M190.714 20.829C190.714 21.413 190.398 21.886 190.009 21.886H189.304C188.915 21.886 188.599 21.413 188.599 20.829V12.815C188.599 12.231 188.915 11.758 189.304 11.758H190.009C190.398 11.758 190.714 12.231 190.714 12.815V20.829ZM203.4 20.829C203.4 21.413 203.085 21.886 202.695 21.886H201.99C201.601 21.886 201.285 21.413 201.285 20.829V12.815C201.285 12.231 201.6 11.758 201.99 11.758H202.695C203.084 11.758 203.4 12.231 203.4 12.815V20.829ZM194.943 20.829C194.943 21.413 194.627 21.886 194.238 21.886H193.533C193.144 21.886 192.828 21.413 192.828 20.829V12.815C192.828 12.231 193.144 11.758 193.533 11.758H194.238C194.627 11.758 194.943 12.231 194.943 12.815V20.829ZM199.171 20.829C199.171 21.413 198.855 21.886 198.466 21.886H197.762C197.373 21.886 197.057 21.413 197.057 20.829V12.815C197.057 12.231 197.373 11.758 197.762 11.758H198.466C198.855 11.758 199.171 12.231 199.171 12.815V20.829Z" fill="#FFD983"/>
<path d="M203.929 21.357C203.929 21.941 203.456 22.414 202.872 22.414H189.129C188.849 22.414 188.58 22.3026 188.382 22.1044C188.183 21.9062 188.072 21.6373 188.072 21.357C188.072 21.0767 188.183 20.8078 188.382 20.6096C188.58 20.4114 188.849 20.3 189.129 20.3H202.872C203.455 20.3 203.929 20.773 203.929 21.357Z" fill="#FFCC4D"/>
<path d="M204.986 22.414C204.986 22.998 204.513 23.471 203.929 23.471H188.071C187.791 23.471 187.522 23.3596 187.324 23.1614C187.125 22.9632 187.014 22.6943 187.014 22.414C187.014 22.1337 187.125 21.8648 187.324 21.6666C187.522 21.4684 187.791 21.357 188.071 21.357H203.928C204.512 21.357 204.986 21.83 204.986 22.414Z" fill="#FFD983"/>
<path d="M205.514 23.207C205.514 23.4173 205.431 23.619 205.282 23.7677C205.133 23.9165 204.931 24 204.721 24H187.279C187.175 24 187.072 23.9795 186.976 23.9396C186.879 23.8998 186.792 23.8414 186.718 23.7677C186.645 23.6941 186.586 23.6067 186.546 23.5105C186.507 23.4143 186.486 23.3111 186.486 23.207C186.486 23.1029 186.507 22.9997 186.546 22.9035C186.586 22.8073 186.645 22.7199 186.718 22.6463C186.792 22.5726 186.879 22.5142 186.976 22.4744C187.072 22.4345 187.175 22.414 187.279 22.414H204.722C205.159 22.414 205.514 22.769 205.514 23.207Z" fill="#FFD983"/>
<path d="M203.929 12.286C203.929 11.702 203.424 11.229 202.802 11.229H189.129C188.506 11.229 188.072 11.702 188.072 12.286C188.072 12.683 188.276 13.025 188.601 13.206V13.872H190.715V13.343H192.829V13.872H194.943V13.343H197.057V13.872H199.171V13.343H201.285V13.872H203.4V13.179C203.717 12.991 203.929 12.662 203.929 12.286Z" fill="#FFCC4D"/>
<path d="M187.543 11.463C187.543 10.918 188.078 10.7 188.078 10.7L195.956 7L203.909 10.7C203.909 10.7 204.457 10.822 204.457 11.467V11.758H187.543V11.463Z" fill="#FFD983"/>
<path d="M196 8.34302C196 8.34302 190.545 10.914 190.001 11.146C189.456 11.377 189.638 11.757 190.002 11.757H201.972C202.534 11.757 202.401 11.328 201.955 11.096C201.509 10.865 196 8.34302 196 8.34302Z" fill="#FFAC33"/>
<path d="M204.457 11.757C204.457 11.8972 204.401 12.0316 204.302 12.1308C204.203 12.2299 204.068 12.2858 203.928 12.286H188.071C187.936 12.2777 187.81 12.2184 187.717 12.1201C187.625 12.0218 187.573 11.892 187.573 11.757C187.573 11.6221 187.625 11.4922 187.717 11.3939C187.81 11.2957 187.936 11.2363 188.071 11.228L203.928 11.231C203.997 11.2308 204.066 11.2442 204.13 11.2705C204.194 11.2968 204.252 11.3355 204.302 11.3843C204.351 11.4332 204.39 11.4912 204.416 11.5552C204.443 11.6192 204.457 11.6877 204.457 11.757Z" fill="#FFD983"/>
</svg>
