<svg width="67" height="67" viewBox="0 0 67 67" fill="none" xmlns="http://www.w3.org/2000/svg">
<path d="M61.4167 46.4896C61.4167 47.1875 61.2771 47.8854 60.9979 48.5275C60.7279 49.1709 60.3397 49.758 59.8533 50.2584C59.348 50.7357 58.7618 51.1238 58.1225 51.403C57.4669 51.6698 56.7645 51.8027 56.0567 51.7938C52.8972 51.7403 49.7417 52.04 46.6488 52.6871C42.9836 53.1194 39.4528 54.328 36.2917 56.2325V14.6088C39.3374 13.1571 42.6008 12.2135 45.9508 11.8171C49.3603 11.1403 52.8325 10.8315 56.3079 10.8959C57.6924 10.9727 58.9932 11.5831 59.9371 12.5988C60.8583 13.5815 61.3692 14.8796 61.3608 16.228L61.4167 46.4896ZM30.7083 14.6088V56.2325C27.5993 54.3465 24.127 53.1383 20.5188 52.6871C17.3678 52.0499 14.1578 51.7504 10.9433 51.7938C10.2355 51.8027 9.53314 51.6698 8.87751 51.403C8.23982 51.1224 7.65452 50.7353 7.14667 50.2584C6.64888 49.7673 6.25904 49.1778 6.00209 48.5275C5.72187 47.8849 5.57923 47.1907 5.58334 46.4896V16.0605C5.58774 14.7147 6.10351 13.4209 7.02618 12.4412C7.94885 11.4615 9.20942 10.8692 10.5525 10.7842C14.1027 10.6945 17.6517 11.0035 21.1329 11.7055C24.4653 12.128 27.7025 13.1095 30.7083 14.6088Z" fill="#2347A5"/>
</svg>
