<svg width="60" height="60" viewBox="0 0 60 60" fill="none" xmlns="http://www.w3.org/2000/svg">
<path d="M24.59 8.11C26.9975 3.9475 33.0025 3.9475 35.41 8.11L57.8275 46.87C60.235 51.0375 57.2275 56.25 52.415 56.25H7.58499C2.76999 56.25 -0.235007 51.0375 2.17249 46.87L24.59 8.11ZM30 21.25C29.5027 21.25 29.0258 21.4475 28.6742 21.7992C28.3225 22.1508 28.125 22.6277 28.125 23.125V34.375C28.125 34.8723 28.3225 35.3492 28.6742 35.7008C29.0258 36.0525 29.5027 36.25 30 36.25C30.4973 36.25 30.9742 36.0525 31.3258 35.7008C31.6774 35.3492 31.875 34.8723 31.875 34.375V23.125C31.875 22.6277 31.6774 22.1508 31.3258 21.7992C30.9742 21.4475 30.4973 21.25 30 21.25ZM32.5 43.75C32.5 43.087 32.2366 42.4511 31.7678 41.9822C31.2989 41.5134 30.663 41.25 30 41.25C29.337 41.25 28.7011 41.5134 28.2322 41.9822C27.7634 42.4511 27.5 43.087 27.5 43.75C27.5 44.413 27.7634 45.0489 28.2322 45.5178C28.7011 45.9866 29.337 46.25 30 46.25C30.663 46.25 31.2989 45.9866 31.7678 45.5178C32.2366 45.0489 32.5 44.413 32.5 43.75Z" fill="#58B4C4"/>
</svg>
