<svg width="60" height="60" viewBox="0 0 60 60" fill="none" xmlns="http://www.w3.org/2000/svg">
<path fill-rule="evenodd" clip-rule="evenodd" d="M11.25 7.5C10.2554 7.5 9.30161 7.89509 8.59835 8.59835C7.89509 9.30161 7.5 10.2554 7.5 11.25V48.75C7.5 49.7446 7.89509 50.6984 8.59835 51.4016C9.30161 52.1049 10.2554 52.5 11.25 52.5H48.75C49.7446 52.5 50.6984 52.1049 51.4016 51.4016C52.1049 50.6984 52.5 49.7446 52.5 48.75V11.25C52.5 10.2554 52.1049 9.30161 51.4016 8.59835C50.6984 7.89509 49.7446 7.5 48.75 7.5H11.25ZM21.25 12.5C20.587 12.5 19.9511 12.7634 19.4822 13.2322C19.0134 13.7011 18.75 14.337 18.75 15V45C18.75 45.663 19.0134 46.2989 19.4822 46.7678C19.9511 47.2366 20.587 47.5 21.25 47.5H38.75C39.413 47.5 40.0489 47.2366 40.5178 46.7678C40.9866 46.2989 41.25 45.663 41.25 45V15C41.25 14.337 40.9866 13.7011 40.5178 13.2322C40.0489 12.7634 39.413 12.5 38.75 12.5H21.25Z" fill="#58B4C4"/>
<path d="M21.25 15H38.75V26.25H21.25V15ZM26.5913 30.795C26.5913 31.3375 26.3757 31.8578 25.9921 32.2415C25.6085 32.6251 25.0882 32.8406 24.5456 32.8406C24.0031 32.8406 23.4828 32.6251 23.0992 32.2415C22.7155 31.8578 22.5 31.3375 22.5 30.795C22.5 30.2525 22.7155 29.7322 23.0992 29.3485C23.4828 28.9649 24.0031 28.7494 24.5456 28.7494C25.0882 28.7494 25.6085 28.9649 25.9921 29.3485C26.3757 29.7322 26.5913 30.2525 26.5913 30.795ZM32.045 30.795C32.045 31.3374 31.8295 31.8575 31.446 32.241C31.0625 32.6245 30.5424 32.84 30 32.84C29.4576 32.84 28.9375 32.6245 28.554 32.241C28.1705 31.8575 27.955 31.3374 27.955 30.795C27.955 30.2526 28.1705 29.7325 28.554 29.349C28.9375 28.9655 29.4576 28.75 30 28.75C30.5424 28.75 31.0625 28.9655 31.446 29.349C31.8295 29.7325 32.045 30.2526 32.045 30.795ZM37.5 30.795C37.5 31.3375 37.2845 31.8578 36.9008 32.2415C36.5172 32.6251 35.9969 32.8406 35.4544 32.8406C34.9118 32.8406 34.3915 32.6251 34.0079 32.2415C33.6243 31.8578 33.4087 31.3375 33.4087 30.795C33.4087 30.2525 33.6243 29.7322 34.0079 29.3485C34.3915 28.9649 34.9118 28.7494 35.4544 28.7494C35.9969 28.7494 36.5172 28.9649 36.9008 29.3485C37.2845 29.7322 37.5 30.2525 37.5 30.795ZM26.5913 36.25C26.5913 36.7925 26.3757 37.3128 25.9921 37.6965C25.6085 38.0801 25.0882 38.2956 24.5456 38.2956C24.0031 38.2956 23.4828 38.0801 23.0992 37.6965C22.7155 37.3128 22.5 36.7925 22.5 36.25C22.5 35.7075 22.7155 35.1872 23.0992 34.8035C23.4828 34.4199 24.0031 34.2044 24.5456 34.2044C25.0882 34.2044 25.6085 34.4199 25.9921 34.8035C26.3757 35.1872 26.5913 35.7075 26.5913 36.25ZM32.045 36.25C32.045 36.7925 31.8295 37.3128 31.4459 37.6965C31.0622 38.0801 30.5419 38.2956 29.9994 38.2956C29.4568 38.2956 28.9365 38.0801 28.5529 37.6965C28.1693 37.3128 27.9538 36.7925 27.9538 36.25C27.9538 35.7075 28.1693 35.1872 28.5529 34.8035C28.9365 34.4199 29.4568 34.2044 29.9994 34.2044C30.5419 34.2044 31.0622 34.4199 31.4459 34.8035C31.8295 35.1872 32.045 35.7075 32.045 36.25ZM37.5 36.25C37.5 36.7925 37.2845 37.3128 36.9008 37.6965C36.5172 38.0801 35.9969 38.2956 35.4544 38.2956C34.9118 38.2956 34.3915 38.0801 34.0079 37.6965C33.6243 37.3128 33.4087 36.7925 33.4087 36.25C33.4087 35.7075 33.6243 35.1872 34.0079 34.8035C34.3915 34.4199 34.9118 34.2044 35.4544 34.2044C35.9969 34.2044 36.5172 34.4199 36.9008 34.8035C37.2845 35.1872 37.5 35.7075 37.5 36.25ZM37.5 41.705C37.5 42.2475 37.2845 42.7678 36.9008 43.1515C36.5172 43.5351 35.9969 43.7506 35.4544 43.7506C34.9118 43.7506 34.3915 43.5351 34.0079 43.1515C33.6243 42.7678 33.4087 42.2475 33.4087 41.705C33.4087 41.1625 33.6243 40.6422 34.0079 40.2585C34.3915 39.8749 34.9118 39.6594 35.4544 39.6594C35.9969 39.6594 36.5172 39.8749 36.9008 40.2585C37.2845 40.6422 37.5 41.1625 37.5 41.705ZM22.5 41.705C22.5 40.575 23.4162 39.6587 24.545 39.6587H30C30.5425 39.6587 31.0628 39.8743 31.4465 40.2579C31.8301 40.6415 32.0456 41.1618 32.0456 41.7044C32.0456 42.2469 31.8301 42.7672 31.4465 43.1508C31.0628 43.5345 30.5425 43.75 30 43.75H24.545C24.0026 43.75 23.4825 43.5345 23.099 43.151C22.7155 42.7675 22.5 42.2474 22.5 41.705Z" fill="#58B4C4"/>
</svg>
