<svg width="124" height="124" viewBox="0 0 124 124" fill="none" xmlns="http://www.w3.org/2000/svg">
<g clip-path="url(#clip0_24_6)">
<path d="M104.711 60.6222C98.5111 54.0778 90.2444 49.6 81.6333 47.8778C77.8444 46.8444 74.0555 46.1556 70.2666 45.8111C79.9111 34.4444 78.1889 17.2222 66.8222 7.57778C55.4555 -2.06666 38.2333 -0.344443 28.5889 11.0222C18.9444 22.3889 20.6666 39.6111 32.0333 49.2556C34.1 50.9778 36.1666 52.3556 38.2333 53.0444V60.6222L32.7222 55.4556C27.9 50.6333 19.9777 50.6333 14.8111 55.4556C9.98885 60.2778 9.64441 67.8556 14.4666 72.6778L30.3111 91.2778C31 96.1 32.7222 100.578 35.1333 104.711C36.8555 107.811 39.2666 110.911 41.6777 113.322V119.867C41.6777 121.933 43.0555 123.311 45.1222 123.311H91.9666C93.6889 123.311 95.4111 121.589 95.4111 119.867V110.911C101.956 102.989 105.4 93 105.4 83.0111V63.0333C105.744 61.6556 105.4 60.9667 104.711 60.6222ZM28.9333 28.2444C28.9333 16.8778 38.2333 7.92222 49.6 8.26667C60.9666 8.26667 69.9222 17.5667 69.5777 28.9333C69.5777 35.1333 66.8222 40.6444 62 44.4333V27.2111C61.8241 24.2261 60.513 21.4214 58.3355 19.372C56.158 17.3226 53.2791 16.1837 50.2889 16.1889C44.0889 15.8444 38.5777 21.0111 38.5777 27.2111V45.1222C32.7222 41.6778 29.2777 35.1333 28.9333 28.2444ZM98.8555 82.6667C99.2 91.6222 96.1 100.233 90.2444 107.122C89.5555 107.811 88.8666 108.5 88.8666 109.533V116.767H48.9111V111.944C48.9111 110.911 48.2222 109.878 47.5333 109.189C45.1222 107.122 43.0555 104.711 41.3333 101.611C39.2666 98.1667 37.8889 94.0333 37.2 89.9C37.2 89.2111 36.8555 88.5222 36.5111 87.8333L19.9777 68.2C18.9444 67.1667 18.2555 65.7889 18.2555 64.0667C18.2555 62.6889 18.9444 60.9667 19.9777 59.9333C22.3889 57.8667 25.8333 57.8667 28.2444 59.9333L38.2333 69.9222V80.2556L44.7777 76.8111V27.2111C45.1222 24.8 47.1889 22.7333 49.9444 23.0778C52.3555 23.0778 54.7666 24.8 54.7666 27.2111V66.8222L61.6555 68.2V52.3556C62 52.0111 62.3444 52.0111 62.6889 51.6667C65.1 51.6667 67.5111 52.0111 69.9222 52.3556V69.9222L75.4333 70.9556V53.0444L79.5666 54.0778C81.2889 54.4222 83.0111 55.1111 84.7333 55.8V73.0222L90.2444 74.0556V58.2111C93.3444 59.5889 96.1 61.6556 98.5111 64.0667L98.8555 82.6667Z" fill="#F27D11"/>
</g>
<defs>
<clipPath id="clip0_24_6">
<rect width="124" height="124" fill="white"/>
</clipPath>
</defs>
</svg>
