<svg width="60" height="60" viewBox="0 0 60 60" fill="none" xmlns="http://www.w3.org/2000/svg">
<path d="M55 46.5125C55 47.0098 54.8025 47.4867 54.4508 47.8383C54.0992 48.19 53.6223 48.3875 53.125 48.3875H40.375C39.9574 49.9447 39.0377 51.3206 37.7586 52.3019C36.4794 53.2832 34.9122 53.8151 33.3 53.8151C31.6878 53.8151 30.1206 53.2832 28.8414 52.3019C27.5623 51.3206 26.6426 49.9447 26.225 48.3875H6.875C6.37772 48.3875 5.90081 48.19 5.54917 47.8383C5.19754 47.4867 5 47.0098 5 46.5125C5 46.0152 5.19754 45.5383 5.54917 45.1867C5.90081 44.835 6.37772 44.6375 6.875 44.6375H26.225C26.6426 43.0803 27.5623 41.7044 28.8414 40.7231C30.1206 39.7418 31.6878 39.2099 33.3 39.2099C34.9122 39.2099 36.4794 39.7418 37.7586 40.7231C39.0377 41.7044 39.9574 43.0803 40.375 44.6375H53.125C53.6223 44.6375 54.0992 44.835 54.4508 45.1867C54.8025 45.5383 55 46.0152 55 46.5125ZM55 13.4875C55 13.9848 54.8025 14.4617 54.4508 14.8133C54.0992 15.165 53.6223 15.3625 53.125 15.3625H47C46.5824 16.9197 45.6627 18.2956 44.3836 19.2769C43.1044 20.2582 41.5372 20.7901 39.925 20.7901C38.3128 20.7901 36.7456 20.2582 35.4664 19.2769C34.1873 18.2956 33.2676 16.9197 32.85 15.3625H6.875C6.62877 15.3625 6.38495 15.314 6.15747 15.2198C5.92998 15.1255 5.72328 14.9874 5.54917 14.8133C5.37506 14.6392 5.23695 14.4325 5.14273 14.205C5.0485 13.9775 5 13.7337 5 13.4875C5 13.2413 5.0485 12.9975 5.14273 12.77C5.23695 12.5425 5.37506 12.3358 5.54917 12.1617C5.72328 11.9876 5.92998 11.8495 6.15747 11.7552C6.38495 11.661 6.62877 11.6125 6.875 11.6125H32.85C33.2676 10.0553 34.1873 8.67939 35.4664 7.69808C36.7456 6.71676 38.3128 6.18487 39.925 6.18487C41.5372 6.18487 43.1044 6.71676 44.3836 7.69808C45.6627 8.67939 46.5824 10.0553 47 11.6125H53.125C53.3722 11.6091 53.6175 11.6553 53.8465 11.7484C54.0755 11.8414 54.2835 11.9794 54.4583 12.1542C54.6331 12.329 54.7711 12.537 54.8641 12.766C54.9572 12.995 55.0034 13.2403 55 13.4875ZM55 29.9875C55.0034 30.2347 54.9572 30.48 54.8641 30.709C54.7711 30.938 54.6331 31.146 54.4583 31.3208C54.2835 31.4956 54.0755 31.6336 53.8465 31.7266C53.6175 31.8197 53.3722 31.8659 53.125 31.8625H23.875C23.4574 33.4197 22.5377 34.7956 21.2586 35.7769C19.9794 36.7582 18.4122 37.2901 16.8 37.2901C15.1878 37.2901 13.6206 36.7582 12.3414 35.7769C11.0623 34.7956 10.1426 33.4197 9.725 31.8625H6.875C6.37772 31.8625 5.90081 31.665 5.54917 31.3133C5.19754 30.9617 5 30.4848 5 29.9875C5 29.4902 5.19754 29.0133 5.54917 28.6617C5.90081 28.31 6.37772 28.1125 6.875 28.1125H9.725C10.1426 26.5553 11.0623 25.1794 12.3414 24.1981C13.6206 23.2168 15.1878 22.6849 16.8 22.6849C18.4122 22.6849 19.9794 23.2168 21.2586 24.1981C22.5377 25.1794 23.4574 26.5553 23.875 28.1125H53.125C53.6223 28.1125 54.0992 28.31 54.4508 28.6617C54.8025 29.0133 55 29.4902 55 29.9875Z" fill="#298C9D"/>
</svg>
