<svg width="55" height="54" viewBox="0 0 55 54" fill="none" xmlns="http://www.w3.org/2000/svg">
<g clip-path="url(#clip0_204_16)">
<path d="M14.4862 33.0734C14.6011 33.5051 15.0408 33.7641 15.4654 33.6473L26.2767 30.702C26.7014 30.5852 26.9561 30.1383 26.8412 29.7066L24.3582 20.2867C24.2433 19.8551 23.8037 19.5961 23.379 19.7129L19.5221 20.7691L20.7611 25.4766L17.6736 26.3145L16.4346 21.607L12.5728 22.6582C12.1481 22.775 11.8933 23.2219 12.0082 23.6535L14.4862 33.0734ZM31.1628 14C30.2785 14 29.564 14.7262 29.564 15.625V32.0578L12.273 36.8516C12.0582 36.9125 11.9333 37.1359 11.9932 37.3492L12.6227 39.7004C12.6827 39.9188 12.9025 40.0457 13.1123 39.9848L32.7814 34.5309C32.9014 37.5676 35.3394 40 38.3569 40C41.4494 40 43.9524 37.4559 43.9524 34.3125V14H31.1628ZM38.3569 36.75C37.033 36.75 35.9589 35.6582 35.9589 34.3125C35.9589 32.9668 37.033 31.875 38.3569 31.875C39.6809 31.875 40.755 32.9668 40.755 34.3125C40.755 35.6582 39.6809 36.75 38.3569 36.75Z" fill="#4F4F4F"/>
</g>
<rect x="1.48706" y="0.5" width="52.9565" height="53" rx="26.4782" stroke="#4F4F4F"/>
<defs>
<clipPath id="clip0_204_16">
<rect width="31.9742" height="26" fill="white" transform="translate(11.9782 14)"/>
</clipPath>
</defs>
</svg>
