<svg width="55" height="54" viewBox="0 0 55 54" fill="none" xmlns="http://www.w3.org/2000/svg">
<path d="M30.3798 16.3333H25.0508C20.0268 16.3333 17.5142 16.3333 15.9541 17.896C14.8297 19.02 14.5153 20.6387 14.4274 23.3333H41.0033C40.9153 20.6387 40.6009 19.02 39.4765 17.896C37.9164 16.3333 35.4038 16.3333 30.3798 16.3333Z" fill="#4F4F4F"/>
<path fill-rule="evenodd" clip-rule="evenodd" d="M30.3798 37.6667H25.0508C20.0268 37.6667 17.5142 37.6667 15.9541 36.104C14.394 34.5413 14.3927 32.028 14.3927 27C14.3927 26.4116 14.3936 25.856 14.3954 25.3333H41.0352C41.037 25.856 41.0379 26.4116 41.0379 27C41.0379 32.028 41.0379 34.5427 39.4765 36.104C37.915 37.6653 35.4037 37.6667 30.3798 37.6667ZM33.1043 27.3333C33.6811 27.3333 34.21 27.3333 34.639 27.3907C35.1133 27.4547 35.6129 27.604 36.0246 28.0173C36.4362 28.4307 36.5868 28.9293 36.6507 29.404C36.708 29.8347 36.708 30.364 36.708 30.94V31.06C36.708 31.6373 36.708 32.1667 36.6507 32.596C36.5868 33.0707 36.4376 33.5707 36.0246 33.9827C35.6116 34.3947 35.1133 34.5453 34.639 34.6093C34.2087 34.6667 33.6798 34.6667 33.1043 34.6667H32.9844C32.4075 34.6667 31.8786 34.6667 31.4496 34.6093C30.9753 34.5453 30.4757 34.396 30.0641 33.9827C29.6524 33.5693 29.5018 33.0707 29.4379 32.596C29.3806 32.1653 29.3806 31.636 29.3806 31.06V30.94C29.3806 30.3627 29.3806 29.8333 29.4379 29.404C29.5018 28.9293 29.6511 28.4293 30.0641 28.0173C30.4771 27.6053 30.9753 27.4547 31.4496 27.3907C31.8799 27.3333 32.4088 27.3333 32.9844 27.3333H33.1043ZM18.7225 29C18.7225 28.7348 18.8278 28.4804 19.0152 28.2929C19.2026 28.1054 19.4567 28 19.7217 28H22.3862C22.6513 28 22.9054 28.1054 23.0928 28.2929C23.2802 28.4804 23.3854 28.7348 23.3854 29C23.3854 29.2652 23.2802 29.5196 23.0928 29.7071C22.9054 29.8946 22.6513 30 22.3862 30H19.7217C19.4567 30 19.2026 29.8946 19.0152 29.7071C18.8278 29.5196 18.7225 29.2652 18.7225 29ZM18.7225 33C18.7225 32.7348 18.8278 32.4804 19.0152 32.2929C19.2026 32.1054 19.4567 32 19.7217 32H25.0508C25.3158 32 25.5699 32.1054 25.7573 32.2929C25.9447 32.4804 26.05 32.7348 26.05 33C26.05 33.2652 25.9447 33.5196 25.7573 33.7071C25.5699 33.8946 25.3158 34 25.0508 34H19.7217C19.4567 34 19.2026 33.8946 19.0152 33.7071C18.8278 33.5196 18.7225 33.2652 18.7225 33Z" fill="#4F4F4F"/>
<path d="M31.4763 29.4307L31.4803 29.4293L31.4936 29.4227C31.5655 29.3972 31.6402 29.3806 31.7161 29.3733C31.9959 29.336 32.3875 29.3333 33.0444 29.3333C33.7012 29.3333 34.0928 29.336 34.3726 29.3733C34.4533 29.3816 34.5326 29.4005 34.6084 29.4293L34.6124 29.4307L34.6137 29.4347L34.6204 29.448C34.6324 29.4773 34.6524 29.5413 34.6697 29.6707C34.707 29.9507 34.7097 30.3427 34.7097 31C34.7097 31.6573 34.707 32.0493 34.6697 32.3293C34.6614 32.4101 34.6426 32.4894 34.6137 32.5653L34.6124 32.5693L34.6084 32.5707L34.5951 32.5773C34.5232 32.6028 34.4485 32.6194 34.3726 32.6267C34.0928 32.664 33.7012 32.6667 33.0444 32.6667C32.3875 32.6667 31.9959 32.664 31.7161 32.6267C31.6354 32.6183 31.5561 32.5995 31.4803 32.5707L31.4763 32.5693L31.475 32.5653L31.4683 32.552C31.4428 32.4801 31.4263 32.4053 31.419 32.3293C31.3817 32.0493 31.379 31.6573 31.379 31C31.379 30.3427 31.3817 29.9507 31.419 29.6707C31.4273 29.5899 31.4461 29.5106 31.475 29.4347L31.4763 29.4307Z" fill="#4F4F4F"/>
<rect x="1.23712" y="0.5" width="52.9565" height="53" rx="26.4782" stroke="#4F4F4F"/>
</svg>
