<svg width="55" height="54" viewBox="0 0 55 54" fill="none" xmlns="http://www.w3.org/2000/svg">
<g clip-path="url(#clip0_204_18)">
<path d="M40.6359 26.6364C40.6359 34.2045 35.5035 41.2818 28.6068 43C21.7101 41.2818 16.5776 34.2045 16.5776 26.6364V18.4545L28.6068 13L40.6359 18.4545V26.6364ZM28.6068 40.2727C33.6189 38.9091 37.9628 32.8273 37.9628 26.9364V20.2273L28.6068 15.9727L19.2508 20.2273V26.9364C19.2508 32.8273 23.5946 38.9091 28.6068 40.2727ZM32.3492 26.6364V24.5909C32.3492 22.6818 30.478 21.1818 28.6068 21.1818C26.7356 21.1818 24.8644 22.6818 24.8644 24.5909V26.6364C24.0624 26.6364 23.2605 27.4545 23.2605 28.2727V33.0455C23.2605 34 24.0624 34.8182 24.8644 34.8182H32.2155C33.1511 34.8182 33.953 34 33.953 33.1818V28.4091C33.953 27.4545 33.1511 26.6364 32.3492 26.6364ZM30.6116 26.6364H26.6019V24.5909C26.6019 23.5 27.5375 22.8182 28.6068 22.8182C29.676 22.8182 30.6116 23.5 30.6116 24.5909V26.6364Z" fill="#4F4F4F"/>
</g>
<rect x="1.03879" y="0.5" width="53.1311" height="53" rx="26.5" stroke="#4F4F4F"/>
<defs>
<clipPath id="clip0_204_18">
<rect width="30.0728" height="30" fill="white" transform="translate(14.5728 14)"/>
</clipPath>
</defs>
</svg>
