<svg width="55" height="54" viewBox="0 0 55 54" fill="none" xmlns="http://www.w3.org/2000/svg">
<path fill-rule="evenodd" clip-rule="evenodd" d="M27.2121 13.6667C19.854 13.6667 13.8895 19.636 13.8895 27C13.8895 29.52 14.589 31.88 15.8053 33.8907L14.6169 37.9333C14.5487 38.1654 14.5442 38.4117 14.6039 38.6461C14.6637 38.8805 14.7854 39.0946 14.9563 39.2656C15.1273 39.4367 15.3411 39.5586 15.5754 39.6183C15.8096 39.6781 16.0557 39.6736 16.2876 39.6053L20.327 38.416C22.4036 39.6733 24.785 40.3364 27.2121 40.3333C34.5702 40.3333 40.5347 34.364 40.5347 27C40.5347 19.636 34.5702 13.6667 27.2121 13.6667ZM24.1985 30.0173C26.8937 32.7133 29.4663 33.0693 30.3749 33.1027C31.7564 33.1533 33.102 32.0973 33.6256 30.872C33.6911 30.7194 33.7148 30.5522 33.6942 30.3874C33.6736 30.2226 33.6094 30.0663 33.5084 29.9347C32.7783 29.0013 31.7911 28.3307 30.8265 27.664C30.6252 27.5243 30.3777 27.4682 30.1359 27.5075C29.8941 27.5468 29.677 27.6784 29.5302 27.8747L28.7309 29.0947C28.6886 29.16 28.6232 29.2068 28.5477 29.2256C28.4722 29.2444 28.3925 29.2339 28.3245 29.196C27.7823 28.8853 26.9923 28.3573 26.4247 27.7893C25.8572 27.2213 25.3616 26.4667 25.0832 25.9587C25.0495 25.8939 25.0399 25.8193 25.0563 25.7482C25.0727 25.6771 25.1138 25.6141 25.1724 25.5707L26.4034 24.656C26.5796 24.5034 26.6934 24.2912 26.7229 24.0599C26.7524 23.8286 26.6955 23.5946 26.5633 23.4027C25.9664 22.528 25.271 21.416 24.2625 20.6787C24.132 20.5849 23.9796 20.5264 23.82 20.5089C23.6603 20.4913 23.4989 20.5154 23.3512 20.5787C22.1255 21.104 21.0651 22.4507 21.1157 23.836C21.149 24.7453 21.5047 27.32 24.1985 30.0173Z" fill="#4F4F4F"/>
<rect x="0.733891" y="0.5" width="52.9565" height="53" rx="26.4782" stroke="#4F4F4F"/>
</svg>
